# xmcd
#
# Track frame offsets:
#	150
#	22283
#	43823
#	61953
#	82168
#	104793
#	120518
#	141190
#	169300
#	191845
#	215970
#	240658
#	264515
#
# Disc length: 3714 seconds
#
# Revision: 2
# Processed by: cddbd v1.5.1PL2 Copyright (c) Steve Scherf et al.
# Submitted via: EasyCDDAExtractor 8.2.3.1
#
DISCID=d20e800d
DTITLE=Various Artist - Illegal Pirate Radio II
DYEAR=1994
DGENRE=Hardcore
TTITLE0=Mole The Dipper - Eye Of The Dinosour
TTITLE1=D-Force (Red Alert and Mike Slammer) - Ruff
TTITLE2=Undercover Movement - Warning
TTITLE3=DJ KP - In The Jungle
TTITLE4=Holdtight - Holdtight
TTITLE5=Force and Evolution - Twelve Midnight
TTITLE6=Multicore - Hardfloor
TTITLE7=Red Alert and Mike Slammer - In Effect
TTITLE8=Hackney Hardcore - Rave Scene 94
TTITLE9=Manix - Alright With Me
TTITLE10=Code 071 - London Somting
TTITLE11=Citidel Of Kaos - Ronnie's Revenge
TTITLE12=strictly underground - info
EXTD=
EXTT0=
EXTT1=
EXTT2=
EXTT3=
EXTT4=
EXTT5=
EXTT6=
EXTT7=
EXTT8=
EXTT9=
EXTT10=
EXTT11=
EXTT12=
PLAYORDER=
